<svg width="28" height="12" viewBox="0 0 28 12" fill="none" xmlns="http://www.w3.org/2000/svg">
<path d="M5.91978 2.08153C6.23077 1.69254 6.44181 1.17025 6.38615 0.636536C5.9309 0.659173 5.37536 0.936879 5.05373 1.32617C4.76494 1.65953 4.50933 2.20369 4.57597 2.71504C5.08701 2.75937 5.59757 2.4596 5.91978 2.08153Z" fill="#000008"/>
<path d="M6.38036 2.81488C5.63821 2.77068 5.0072 3.23609 4.65278 3.23609C4.29817 3.23609 3.75545 2.83716 3.16844 2.84791C2.40442 2.85914 1.6955 3.29112 1.30779 3.97818C0.510343 5.35263 1.09735 7.39142 1.87282 8.51084C2.24941 9.06465 2.70327 9.67444 3.30129 9.65253C3.86632 9.63036 4.08779 9.28666 4.77461 9.28666C5.46092 9.28666 5.66042 9.65253 6.25854 9.64145C6.8788 9.63036 7.26658 9.08736 7.64317 8.53301C8.07518 7.9017 8.25204 7.29211 8.26316 7.25865C8.25204 7.24756 7.06711 6.793 7.05613 5.42997C7.04494 4.28868 7.98642 3.74583 8.03073 3.71216C7.49907 2.92583 6.66836 2.83716 6.38036 2.81488Z" fill="#000008"/>
<path d="M12.8424 1.27034C14.4555 1.27034 15.5787 2.38224 15.5787 4.00107C15.5787 5.62569 14.4324 6.74336 12.802 6.74336H11.016V9.58354H9.72566V1.27034L12.8424 1.27034ZM11.016 5.66024H12.4966C13.6201 5.66024 14.2595 5.0554 14.2595 4.00685C14.2595 2.95841 13.6201 2.35923 12.5024 2.35923H11.016V5.66024Z" fill="#000008"/>
<path d="M15.9158 7.86102C15.9158 6.8009 16.7281 6.14995 18.1685 6.06927L19.8276 5.97137V5.50477C19.8276 4.8307 19.3724 4.42743 18.6121 4.42743C17.8918 4.42743 17.4424 4.77302 17.3331 5.31464H16.1579C16.227 4.21997 17.1602 3.41344 18.6581 3.41344C20.1271 3.41344 21.0661 4.19118 21.0661 5.40676V9.58353H19.8736V8.58687H19.8449C19.4935 9.26094 18.7272 9.68721 17.9323 9.68721C16.7455 9.68721 15.9158 8.94979 15.9158 7.86102ZM19.8276 7.31374V6.83558L18.3354 6.9277C17.5922 6.97959 17.1717 7.30796 17.1717 7.82646C17.1717 8.3564 17.6096 8.7021 18.2779 8.7021C19.1477 8.7021 19.8276 8.10293 19.8276 7.31374Z" fill="#000008"/>
<path d="M22.192 11.8131V10.8049C22.284 10.8279 22.4914 10.8279 22.5952 10.8279C23.1712 10.8279 23.4824 10.586 23.6724 9.96379C23.6724 9.95223 23.782 9.59509 23.782 9.58931L21.5929 3.52289H22.9408L24.4734 8.45441H24.4963L26.0289 3.52289H27.3423L25.0723 9.90034C24.5541 11.3695 23.9549 11.8419 22.699 11.8419C22.5952 11.8419 22.284 11.8303 22.192 11.8131Z" fill="#000008"/>
</svg>
